<?xml version="1.0" standalone="no"?>
<!DOCTYPE svg PUBLIC "-//W3C//DTD SVG 1.1//EN" "http://www.w3.org/Graphics/SVG/1.1/DTD/svg11.dtd" >
<!--
2013-9-30: Created.
-->
<svg>
<metadata>
Created by iconfont
</metadata>
<defs>

<font id="iconfont" horiz-adv-x="1024" >
  <font-face
    font-family="iconfont"
    font-weight="500"
    font-stretch="normal"
    units-per-em="1024"
    ascent="896"
    descent="-128"
  />
    <missing-glyph />
    
    <glyph glyph-name="up" unicode="&#58903;" d="M845.923 204.013l-334.034 338.493-334.032-338.493-2.665 2.689c-2.856-1.737-5.997-2.963-9.566-2.963-10.636 0-19.227 8.709-19.227 19.488 0 3.63 1.214 6.805 2.903 9.686l-2.665 2.701 353.020 357.709 2.665-2.689c2.856 1.737 5.997 2.963 9.566 2.963 3.546 0 6.711-1.226 9.566-2.939l2.641 2.689 353.021-357.732-2.641-2.701c1.689-2.88 2.903-6.056 2.903-9.686 0-10.778-8.614-19.488-19.251-19.488-3.568 0-6.71 1.226-9.541 2.939l-2.664-2.666zM845.923 204.013z"  horiz-adv-x="1024" />

    
    <glyph glyph-name="xiangxia" unicode="&#59183;" d="M321.08 513.47c-12.93 12.05-33.18 11.33-45.23-1.6-11.45-12.29-11.45-31.34 0-43.63l213.33-213.33c12.49-12.5 32.75-12.51 45.25-0.01l0.01 0.01 213.33 213.33c12.27 12.72 11.91 32.98-0.81 45.25-12.41 11.97-32.07 11.96-44.46-0.02L511.8 322.8 321.08 513.47z"  horiz-adv-x="1024" />

    
    <glyph glyph-name="sheng" unicode="&#58881;" d="M513.78253597 896.98257806c-281.6301659 0-509.93561827-228.30545237-509.93561828-509.93561827s228.30545237-509.93561827 509.93561828-509.93561828S1023.71931819 105.41679389000001 1023.71931819 387.04579584 795.41270187 896.98257806 513.78253597 896.98257806zM464.89844395 682.86289693l110.30531299 0L575.20375694 563.1570659500001c0-23.81565497-18.39236893-35.72406499-55.15382101-35.72406499L464.89844395 527.4329998200001 464.89844395 682.86289693zM227.3671168 627.71023986c29.66158109 4.17166905 62.45744413 16.50038898 98.39690297 36.97684707l110.93170404 0c-45.96636899-66.43351097-115.94515797-106.54347605-209.95499805-120.332222L227.3671168 627.71023986zM789.54465507 91.22869475000005L240.52830891 91.22869475000005l0 33.84256399 0 32.58978304L240.52830891 356.96273977c0 50.13803805 28.20271901 75.20763904 84.60815701 75.20763904l384.81348608 0c53.05692501 0 79.79961913-24.65860494 80.21992903-73.95485696L789.54465507 91.22869475000005zM806.46535509 458.49276189l-98.39690296 0c-118.24697003-16.29547406-280.77557305-18.39003989-487.59628914-6.26739997l0 70.19418397c243.17117213-13.78758201 404.65191026-8.77412807 484.46317112 15.04152803l102.15757597-0.62755499L806.46535509 458.49276189zM807.09291008 543.72847389c-96.10673493 16.70647011-164.62549902 57.86430009-205.56909909 123.46534001l110.93054008 0c28.40879901-22.56171008 59.9518811-36.97684707 94.63739506-43.24424704L807.09174499 543.72847389zM642.26365895 365.1104768L347.69933995 365.1104768l0-26.94877298 335.30067512 0 0 8.14773703C683.00001394 358.84307683 669.41734798 365.1104768 642.26365895 365.1104768zM642.26365895 276.11409181L347.69933995 276.11409181l0-26.94877298 335.30067512 0 0 8.14773703C683.00001394 269.84669183999995 669.41734798 276.11409181 642.26365895 276.11409181zM642.26365895 187.11887075000004L347.69933995 187.11887075000004l0-29.45666502 335.30067512 0 0 9.40051797C683.00001394 180.43930965000004 669.41734798 187.11887075000004 642.26365895 187.11887075000004z"  horiz-adv-x="1024" />

    
    <glyph glyph-name="yanjing" unicode="&#59243;" d="M512.090316 437.195978c-39.377668 0-69.723761-30.346093-69.723761-69.723761s30.346093-69.723761 69.723761-69.72376 69.723761 30.346093 69.723761 69.72376-30.165461 69.723761-69.723761 69.723761z m0 162.929617c-128.067737 0-232.83401-104.585641-232.83401-232.834009s104.585641-232.83401 232.83401-232.83401 232.83401 104.585641 232.834009 232.83401-104.946904 232.83401-232.834009 232.834009z m0-418.884459c-102.418063 0-186.231081 83.632387-186.231082 186.231081s83.632387 186.231081 186.231082 186.231082c102.418063 0 186.231081-83.632387 186.231081-186.231082S614.327747 181.241136 512.090316 181.241136z m0 511.909684C227.956959 693.15082 0 460.497442 0 367.472217S227.956959 41.612983 512.090316 41.612983s512.090316 232.83401 512.090316 325.859234-228.13759 325.678603-512.090316 325.678603z m0-604.934909c-255.954842 0-465.487388 200.139707-465.487388 279.256306S255.954842 646.728524 512.090316 646.728524s465.487388-200.139707 465.487387-279.256307-209.532545-279.256306-465.487387-279.256306z"  horiz-adv-x="1024" />

    
    <glyph glyph-name="xiangyou" unicode="&#59019;" d="M428.100267 271.598933l48.264533-48.264533L637.0304 384l-160.6656 160.6656-48.264533-48.264533L540.501333 384zM512 76.8a307.2 307.2 0 1 1 0 614.4 307.2 307.2 0 0 1 0-614.4z m0-68.266667C304.64 8.533333 136.533333 176.64 136.533333 384S304.64 759.466667 512 759.466667s375.466667-168.106667 375.466667-375.466667-168.106667-375.466667-375.466667-375.466667z"  horiz-adv-x="1024" />

    
    <glyph glyph-name="hao" unicode="&#58938;" d="M512-103.68a26.496 26.496 0 0 0-12.8 3.584l-399.104 230.4a27.008 27.008 0 0 0-12.8 23.296V614.4a27.008 27.008 0 0 0 12.8 23.296L499.2 868.096a27.264 27.264 0 0 0 26.88 0l399.104-230.4a27.008 27.008 0 0 0 12.8-23.296v-460.8a27.008 27.008 0 0 0-12.8-23.296l-399.104-230.4a26.496 26.496 0 0 0-14.08-3.584zM139.776 169.088L512-45.824l372.224 214.912V598.912L512 813.824 139.776 598.912zM313.6 524.8h46.976q5.248 34.304 9.856 72.832l55.552-5.248-11.136-67.584h78.72q-3.456-135.936-42.752-211.968l56.448-48-40.064-42.496c-15.232 15.744-30.592 31.232-45.952 46.208a293.248 293.248 0 0 0-72.064-62.592q-18.432 24.448-35.968 44.416A262.144 262.144 0 0 1 381.184 307.2c-18.304 17.024-36.608 33.792-55.168 50.432a1181.824 1181.824 0 0 1 26.624 117.888H313.6z m69.632-153.6l25.6-21.76a355.328 355.328 0 0 1 29.184 126.08h-32.384q-10.752-54.528-22.4-104.32z m111.232 54.784h85.504v38.4l55.68 62.72h-127.232v52.48h196.352v-56.832l-67.968-78.336v-18.048h74.752V371.2h-74.752v-98.816a98.304 98.304 0 0 0-5.376-29.184 55.296 55.296 0 0 0-19.456-27.264 76.8 76.8 0 0 0-45.568-11.136h-48.768a504.448 504.448 0 0 1-9.984 54.016c21.76-2.304 37.632-3.456 47.36-3.456q24.96 0 25.6 34.56V371.2h-86.144z"  horiz-adv-x="1024" />

    
    <glyph glyph-name="sheng1" unicode="&#58882;" d="M512 776.26c0.36 0 0.69-0.09 1-0.27l337.98-195.13c0.62-0.36 1-1.02 1-1.73v-390.27c0-0.71-0.38-1.38-1-1.73L513-8c-0.31-0.18-0.64-0.27-1-0.27s-0.69 0.09-1 0.27L173.02 187.14c-0.62 0.36-1 1.02-1 1.73V579.13c0 0.71 0.38 1.38 1 1.73L511 776c0.31 0.17 0.64 0.26 1 0.26m0 48a49.92 49.92 0 0 1-25-6.7L149.02 622.4300000000001a50 50 0 0 1-25-43.3v-390.27a50 50 0 0 1 25-43.3L487-49.57000000000005c7.73-4.47 16.37-6.7 25-6.7s17.27 2.23 25 6.7l337.98 195.13a50 50 0 0 1 25 43.3V579.13a50 50 0 0 1-25 43.3L537 817.5699999999999a50.011 50.011 0 0 1-25 6.69zM690.59 418.35h-225.7c74.66 19.27 138.52 38.8 190.3 58.22 1.67 0.62 2.97 1.96 3.56 3.63s0.4 3.53-0.51 5.06l-18.75 31.41a5.996 5.996 0 0 1-7.39 2.49c-28.82-11.57-61.28-22.9-97.23-33.96V612.98c0 3.31-2.69 6-6 6h-35.62c-3.31 0-6-2.69-6-6v-128.44c0-3.31 2.69-6 6-6h19.41c-67.11-19.66-145.46-38.42-234.33-56.08-1.79-0.36-3.32-1.5-4.16-3.12-0.84-1.62-0.9-3.53-0.16-5.2 4.91-11.05 9.1-21.74 12.44-31.8 0.96-2.9 3.96-4.61 6.95-3.97 19.8 4.23 39.4 8.49 58.37 12.69v-236.04c0-3.31 2.69-6 6-6h34.69c3.31 0 6 2.69 6 6v15.56H649.9v-14.62c0-3.31 2.69-6 6-6h34.69c3.31 0 6 2.69 6 6v256.4c0 3.31-2.69 5.99-6 5.99z m-40.68-203.89H398.47v25.03h251.44v-25.03z m0 67.96H398.47v24.56h251.44v-24.56z m0 67.5H398.47v24.56h251.44v-24.56zM313.72 452.75c-1.88 0-3.73 0.88-4.9 2.53-6.79 9.57-14.19 19.79-21.97 30.39-0.98 1.34-1.37 3.02-1.06 4.65s1.27 3.06 2.67 3.96c48 30.67 92.27 62.85 131.58 95.65a5.998 5.998 0 0 0 8.23-0.52l25.78-27.66a6.013 6.013 0 0 0-0.69-8.82c-44.62-34.94-90.47-68.31-136.29-99.16a6.066 6.066 0 0 0-3.35-1.02zM722 466.38c-1.22 0-2.42 0.37-3.44 1.08-41.23 28.82-86.51 57.59-134.58 85.5a5.973 5.973 0 0 0-2.84 3.89 6.01 6.01 0 0 0 0.93 4.73l19.22 27.66c1.75 2.51 5.11 3.31 7.79 1.85 46.41-25.23 93.04-52.42 138.59-80.8a6 6 0 0 0 1.78-8.48L726.95 469a6.023 6.023 0 0 0-3.88-2.51 4.8 4.8 0 0 0-1.07-0.11z"  horiz-adv-x="1024" />

    
    <glyph glyph-name="kuai" unicode="&#58883;" d="M512-103.67999999999995a26.496 26.496 0 0 0-12.8 3.584l-399.104 230.4a27.008 27.008 0 0 0-12.8 23.296V614.4a27.008 27.008 0 0 0 12.8 23.296L499.2 868.096a27.264 27.264 0 0 0 26.88 0l399.104-230.4a27.008 27.008 0 0 0 12.8-23.296v-460.8a27.008 27.008 0 0 0-12.8-23.296l-399.104-230.4a26.496 26.496 0 0 0-14.08-3.584zM139.776 169.08799999999997L512-45.823999999999955l372.224 214.912V598.912L512 813.824 139.776 598.912zM309.632 403.968c8.192 40.576 13.824 74.624 16.768 102.4l34.816-3.584q-5.504-48-16.768-105.216c-11.648 2.432-23.424 4.608-34.816 6.4z m124.032 1.664h89.6q2.304 30.208 3.712 78.72h-71.552l19.84-32-37.632-20.352-21.632 47.232v-278.4h-51.968V595.2h51.968V512l16.768 9.216 22.4-36.096v50.048h73.216l0.768 59.264h52.096l-0.896-59.264H678.4v-129.536h28.032v-51.2h-112.64a192.896 192.896 0 0 1 112.64-100.864q-12.8-19.968-32.384-52.352-79.872 32.128-116.224 124.416-21.248-73.728-102.4-126.848c-11.904 18.688-24.064 35.968-36.352 51.2q74.752 38.4 96.128 104.064h-81.536zM627.2 484.352h-47.616c0-20.992-0.768-47.36-3.2-78.72h51.2z"  horiz-adv-x="1024" />

    
    <glyph glyph-name="duo" unicode="&#58917;" d="M511.296023-127.982721a31.582974 31.582974 0 0 0-14.46353 3.775878L46.479129 117.705295A27.967091 27.967091 0 0 0 32.015599 142.120501V625.912778a27.967091 27.967091 0 0 0 14.46353 24.479204L496.832493 892.272121c9.407694 4.959839 20.92732 4.959839 30.335014 0l450.385363-241.912138A27.935092 27.935092 0 0 0 991.984401 625.912778v-483.760278c0.127996-9.951677-5.343826-19.231375-14.431531-24.479204l-450.385363-241.912138a31.614973 31.614973 0 0 0-15.871484-3.743879zM92.01365 156.488034L512-71.08857l419.98635 227.512606V611.577244L512 839.08985 92.01365 611.577244v-455.121209zM704.889731 606.265416V553.595128a596.876602 596.876602 0 0 0-159.834805-117.020197h77.277488c-11.327632-13.247569-23.103249-26.175149-35.326852-38.46275H735.99272v-51.550324C645.435663 225.733784 507.200156 152.872152 321.382195 128.00896a421.906288 421.906288 0 0 1-29.119054 65.469872 739.39997 739.39997 0 0 1 179.130179 37.822771c-11.327632 16.351469-24.895191 32.734936-41.054666 51.038341-28.31908-14.943514-57.470132-28.063088-87.229165-39.262724a617.22794 617.22794 0 0 1-37.758773 62.365973c87.869144 22.943254 169.690485 67.38981 239.256224 129.947777a1090.012575 1090.012575 0 0 0-226.424641-84.477255A473.072625 473.072625 0 0 1 288.00728 417.919538a918.690143 918.690143 0 0 1 150.939094 38.942734 613.260069 613.260069 0 0 1-42.430621 49.118404c-18.559397-12.287601-38.174759-24.063218-58.558097-35.358851a405.746813 405.746813 0 0 1-41.918637 57.758123A463.216945 463.216945 0 0 1 461.121654 639.99232h77.245489a506.223548 506.223548 0 0 0-26.879126-33.886898l193.369715 0.159994zM416.00312 535.227725c21.407304-17.727424 42.110631-36.158825 62.14198-55.230205A711.368881 711.368881 0 0 1 607.99688 543.99544h-180.250142l-11.743618-8.767715z m31.99896-216.216973A876.963499 876.963499 0 0 0 503.488277 256.0048 541.006417 541.006417 0 0 1 639.99584 352.00168h-145.467272c-15.039511-11.519626-30.623005-22.399272-46.526488-32.990928z"  horiz-adv-x="1024" />

    
    <glyph glyph-name="dianyingpiao" unicode="&#59144;" d="M435.985746 588.89967a54.924 54.94 0 1 0 112.408139 0 54.924 54.94 0 1 0-112.408139 0ZM289.254893 391.626701m-56.20407 0a54.924 54.924 0 1 0 112.408139 0 54.924 54.924 0 1 0-112.408139 0ZM697.889711 391.626701m-56.20407 0a54.924 54.924 0 1 0 112.408139 0 54.924 54.924 0 1 0-112.408139 0ZM786.512121 64.20658 665.875576 64.20658c118.012787 62.207807 198.672852 185.549973 198.672852 327.416028 0 204.26215-167.035294 370.447077-372.35452 370.447077s-372.35452-166.184927-372.35452-370.447077S286.874683 21.188834 492.193909 21.188834c5.79089 0 11.42726 0.603751 17.153682 0.864694l277.16453 0c11.636015 0 21.077038 9.441023 21.077038 21.077038C807.589159 54.765557 798.148136 64.20658 786.512121 64.20658zM505.59922 64.20658c-0.442068 0-0.811482-0.225127-1.24741-0.251733-4.068665-0.147356-8.054443-0.611937-12.158924-0.611937-182.074825 0-330.201467 147.261948-330.201467 328.279698s148.126642 328.294025 330.201467 328.294025 330.201467-147.276275 330.201467-328.294025c0-175.258583-138.961912-318.453912-313.038576-327.416028L505.59922 64.20658zM435.985746 202.035692a54.924 54.94 0 1 0 112.408139 0 54.924 54.94 0 1 0-112.408139 0Z"  horiz-adv-x="1024" />

    
    <glyph glyph-name="tubiaozhizuomoban" unicode="&#58880;" d="M511.989 843.342c-253.671 0-459.336-205.665-459.336-459.348 0-253.671 205.665-459.336 459.336-459.336 253.694 0 459.359 205.665 459.359 459.336 0 253.683-205.665 459.348-459.359 459.348z m0-841.735c-211.18 0-382.376 171.195-382.376 382.387 0 211.191 171.196 382.387 382.376 382.387 211.204 0 382.398-171.196 382.398-382.387S723.192 1.606999999999971 511.989 1.606999999999971zM475.628 76.03800000000001v71.285c-46.4 2.245-91.409 16.501-117.732 32.271l20.773 87.786c29.09-17.252 69.953-33.011 114.951-33.011 40.167 0 67.183 17.251 67.183 46.514 0 28.521-22.163 46.536-74.1 65.291-74.112 27.006-124.649 64.53-124.649 137.32 0 66.785 42.925 118.551 117.026 133.559V688.35h67.879v-66.044c45.716-1.493 76.869-12.751 101.105-24.75l-20.772-84.801c-17.31 9.002-49.875 26.265-99.728 26.265-45.009 0-59.56-21.764-59.56-42.764 0-24.02 24.236-40.521 83.809-63.789 82.406-31.519 114.961-72.79 114.961-141.067 0-66.797-42.946-123.816-122.585-138.071v-77.291h-68.561z"  horiz-adv-x="1024" />

    
    <glyph glyph-name="lipinqia" unicode="&#58892;" d="M568.352 756.864H117.632c-35.168 0-63.68-28.448-63.68-63.52v-609.952c0-35.104 28.512-63.552 63.712-63.552h507.52c14.88 0 26.976-12.032 26.976-26.88s-12.064-26.912-26.976-26.912H117.632A117.504 117.504 0 0 0 0 83.392V234.56 693.312a117.504 117.504 0 0 0 117.632 117.344h788.576a117.504 117.504 0 0 0 117.632-117.344v-609.952a117.44 117.44 0 0 0-117.632-117.312h-71.84a26.912 26.912 0 0 0 0 53.76h71.84a63.648 63.648 0 0 1 63.712 63.52V693.28a63.584 63.584 0 0 1-63.712 63.52H568.352z m-429.76-173.76h746.784c13.632 0 24.832-12.832 24.832-28.448s-11.2-28.448-24.832-28.448H138.592c-13.632 0-24.832 12.8-24.832 28.448s11.2 28.448 24.832 28.448z m0-341.312H316.48c13.632 0 24.832-12.832 24.832-28.448s-11.2-28.448-24.832-28.448H138.592c-13.632 0-24.832 12.8-24.832 28.448s11.2 28.448 24.832 28.448z"  horiz-adv-x="1024" />

    
    <glyph glyph-name="zhongchou" unicode="&#59556;" d="M875.4 285c-24.4 24.4-52.4 43.8-82.8 57.7 52.6 37.3 87 98.7 87 168 0 113.5-92.4 205.9-205.9 205.9-17.7 0-32-14.3-32-32 0-7.7 2.7-14.8 7.3-20.3-36.4 32.5-84.4 52.3-137 52.3-52.5 0-100.5-19.8-137-52.3 4.5 5.5 7.3 12.6 7.3 20.3 0 17.7-14.3 32-32 32-113.5 0-205.9-92.4-205.9-205.9 0-69.3 34.4-130.7 87-168-30.4-14-58.4-33.4-82.8-57.7C94.7 231.2 65 159.5 65 83.3c0-17.7 14.3-32 32-32s32 14.3 32 32c0 115.5 88.9 210.5 201.8 220.4-7.1-5.9-14-12.1-20.6-18.7-53.9-53.9-83.6-125.5-83.6-201.7 0-17.7 14.3-32 32-32s32 14.3 32 32c0 122 99.3 221.3 221.3 221.3s221.3-99.3 221.3-221.3c0-17.7 14.3-32 32-32s32 14.3 32 32c0 76.2-29.7 147.9-83.6 201.7-6.6 6.6-13.5 12.8-20.6 18.7 112.9-9.9 201.8-105 201.8-220.4 0-17.7 14.3-32 32-32s32 14.3 32 32c0.2 76.2-29.5 147.9-83.4 201.7zM375 357.2c5.7-5.1 11.7-9.9 18-14.4-3.6-1.7-7.2-3.4-10.8-5.2-0.1 7.4-2.8 14.2-7.2 19.6z m255.9-14.4c6.3 4.5 12.3 9.3 18 14.4-4.4-5.4-7.1-12.2-7.2-19.6-3.5 1.8-7.1 3.5-10.8 5.2z m42.8 309.9c78.3 0 141.9-63.7 141.9-141.9 0-78.3-63.7-141.9-141.9-141.9-6.9 0-13.3-2.2-18.5-5.9 38.6 37.5 62.7 89.9 62.7 147.8 0 57.9-24.1 110.3-62.7 147.8 5.2-3.7 11.6-5.9 18.5-5.9z m-161.7 0c78.3 0 141.9-63.7 141.9-141.9 0-78.3-63.7-141.9-141.9-141.9-78.3 0-141.9 63.7-141.9 141.9S433.7 652.7 512 652.7z m-161.7 0c6.9 0 13.3 2.2 18.5 5.9-38.6-37.5-62.7-89.9-62.7-147.8 0-57.9 24.1-110.3 62.7-147.8-5.2 3.7-11.6 5.9-18.5 5.9-78.3 0-141.9 63.7-141.9 141.9s63.7 141.9 141.9 141.9z"  horiz-adv-x="1024" />

    
    <glyph glyph-name="fankui" unicode="&#58933;" d="M350.564267 65.490133h-190.389334c-17.672533 0-32 14.3264-32 32V287.8816a31.9936 31.9936 0 0 0 9.396267 22.650667L650.1024 821.9968c12.500267 12.474667 32.743467 12.464 45.230933-0.023467l188.251734-188.253866c4.106667-4.1056 13.720533-13.7216 11.095466-29.890134a32.004267 32.004267 0 0 0-8.981333-17.525333L373.169067 74.839467a32.005333 32.005333 0 0 0-22.6048-9.349334z m-158.389334 64h145.154134l480.487466 479.488c-36.637867 36.64-108.510933 108.510933-145.134933 145.136L192.174933 274.605867v-145.115734zM863.825067-63.346133H160.708267c-17.672533 0-32 14.327467-32 32s14.327467 32 32 32h703.1168c17.672533 0 32-14.327467 32-32s-14.327467-32-32-32z"  horiz-adv-x="1024" />

    
    <glyph glyph-name="wenjian" unicode="&#58905;" d="M908.8 524.8c-12.8-12.8-25.6-19.2-44.8-19.2v-537.6H160v832h409.6c0 32 25.6 57.6 57.6 64H128C108.8 864 96 851.2 96 832v-896c0-6.4 6.4-19.2 6.4-25.6s12.8-6.4 25.6-6.4h768c19.2 0 32 12.8 32 32V569.6c0-19.2-6.4-32-19.2-44.8zM864 569.6zM633.6 800zM928 576zM569.6 800v-230.4c0-38.4 25.6-64 64-64H864c19.2 0 32 6.4 44.8 19.2 12.8 12.8 19.2 25.6 19.2 38.4v6.4c0 12.8-6.4 32-19.2 38.4L678.4 838.4C665.6 857.6 652.8 864 633.6 864h-6.4c-32-6.4-57.6-32-57.6-64zM864 569.6H633.6V800L864 569.6z"  horiz-adv-x="1024" />

    
    <glyph glyph-name="dalou" unicode="&#58945;" d="M503.554793 125.765818H647.100975a33.978182 33.978182 0 1 1 0 67.956364H503.554793a33.978182 33.978182 0 1 1 0-67.956364z m0 211.316364H647.100975a33.978182 33.978182 0 1 1 0 67.863273H503.554793a33.978182 33.978182 0 0 1 0-67.956364z m0 241.384727H647.100975a33.978182 33.978182 0 0 1 33.978181 33.978182v7.447273A33.978182 33.978182 0 0 1 647.100975 653.963636H503.554793a33.978182 33.978182 0 0 1-33.978182-33.885091v-7.540363c0-18.804364 15.173818-33.978182 33.978182-33.978182zM1106.970065-27.368727h-10.426181V404.945455h7.540363v10.984727a56.971636 56.971636 0 0 1-56.971636 56.878545H854.693702V838.469818a56.971636 56.971636 0 0 1-56.971637 56.785455H345.207156a56.971636 56.971636 0 0 1-56.971636-56.785455v-365.661091H87.438429c-31.557818 0-53.061818-27.927273-53.061818-67.863272h12.101818v-432.314182H37.541702a34.350545 34.350545 0 1 1 0-68.701091h1069.428363a34.443636 34.443636 0 1 1 0 68.701091z m-78.382545 432.314182v-432.314182H854.693702V404.945455h173.800727zM786.737338 827.392v-854.760727H356.284975V827.392H786.737338zM114.620975 404.945455h173.707636v-432.314182H114.620975V404.945455z"  horiz-adv-x="1212" />

    
    <glyph glyph-name="jingdongkefu" unicode="&#58888;" d="M570.514286 896C885.613714 896 1141.028571 692.955429 1141.028571 442.514286c0-171.680914-120.0128-321.067886-296.96-398.043429-5.032229-65.565257-3.540114-118.1696 4.388572-157.842286-94.968686 0-174.723657 53.277257-217.263543 104.945372A722.358857 722.358857 0 0 0 570.514286-10.971428999999944C255.414857-10.971428999999944 0 192.07314299999996 0 442.514286 0 692.955429 255.414857 896 570.514286 896z m0-58.514286C285.169371 837.485714 58.514286 657.320229 58.514286 442.514286S285.169371 47.542857000000026 570.514286 47.542857000000026c12.4928 0 24.927086 0.351086 37.302857 1.024l18.432 1.316572 30.573714 2.574628 19.514514-23.698286c24.9856-30.3104 60.094171-55.383771 99.093943-69.924571l7.431315-2.633143-0.058515 2.399086a891.172571 891.172571 0 0 0 1.930972 76.419657l0.994743 13.897143 2.6624 35.137828 32.329142 14.043429C982.279314 168.40411400000005 1082.514286 300.03200000000004 1082.514286 442.514286 1082.514286 657.320229 855.8592 837.485714 570.514286 837.485714zM409.6 486.4a160.914286 58.51428599999999 0 1 1 321.828571 0 160.914286 58.51428599999999 0 1 1-321.828571 0ZM173.582629 516.183771c27.999086-16.149943 67.057371-0.877714 87.2448 34.084572 20.187429 34.991543 15.857371 80.896-12.141715 97.045943-27.999086 16.149943-69.0176-3.540114-89.205028-38.531657s-13.897143-76.448914 14.101943-92.598858zM980.5824 516.183771c-27.999086-16.149943-67.057371-0.877714-87.274057 34.084572-20.187429 34.991543-15.828114 80.896 12.170971 97.045943 27.969829 16.149943 68.988343-3.540114 89.205029-38.531657 20.187429-34.991543 13.867886-76.448914-14.101943-92.598858zM962.852571 441.431771a21.942857 21.942857 0 0 0 34.523429-27.092114c-111.733029-142.189714-260.037486-208.6912-442.719086-198.538971-181.306514 10.064457-318.756571 71.153371-410.711771 183.559314a21.942857 21.942857 0 1 0 33.938286 27.794286c83.587657-102.165943 209.481143-158.1056 379.231085-167.5264 168.404114-9.362286 302.8992 50.907429 405.738057 181.803885z"  horiz-adv-x="1141" />

    
    <glyph glyph-name="jiantouarrow487" unicode="&#59051;" d="M714.19904 346.15296l-328.704-328.69376c-20.91008-20.91008-54.80448-20.91008-75.70432 0-20.89984 20.89984-20.89984 54.80448 0 75.70432L600.63744 384 309.80096 674.83648c-20.89984 20.91008-20.89984 54.80448 0 75.70432 20.89984 20.91008 54.79424 20.91008 75.70432 0l328.704-328.69376c10.4448-10.45504 15.6672-24.14592 15.6672-37.84704S724.64384 356.59776 714.19904 346.15296z"  horiz-adv-x="1024" />

    
    <glyph glyph-name="jiantou-copy" unicode="&#58983;" d="M671.807-31.804l-415.632 415.804 415.632 415.803 63.445-63.616-352.017-352.209 352.017-352.102z"  horiz-adv-x="1024" />

    
    <glyph glyph-name="icon_location" unicode="&#58911;" d="M672 576c0-88.128-71.872-160-160-160-88.128 0-160 71.872-160 160 0 88.128 71.872 160 160 160 88.128 0 160-71.872 160-160M512 896c-176.864 0-320-143.136-320-320 0-38.112 4.384-77.504 20.64-111.872l228.096-483.744c12.512-27.52 41.28-44.384 71.264-44.384 30.016 0 58.752 16.864 71.872 44.384l227.488 483.744c16.256 34.368 20.64 73.76 20.64 111.872 0 176.864-143.136 320-320 320z"  horiz-adv-x="1024" />

    
    <glyph glyph-name="hotel" unicode="&#58907;" d="M1163.601-127.969h-1148.087c-8.564 0-15.515 6.92-15.515 15.484v31.029c0 8.595 6.951 15.515 15.515 15.515h77.573c0 0 0 0.031 0 0.031v899.852c0 34.256 27.771 62.059 62.059 62.059h589.558c34.256 0 62.059-27.802 62.059-62.059v-155.147h217.206c34.256 0 62.059-27.802 62.059-62.059v-682.646c0 0 0-0.031 0-0.031h77.573c8.564 0 15.515-6.92 15.515-15.515v-31.029c0-8.564-6.951-15.484-15.515-15.484zM341.323-65.941h217.206v310.325h-217.206v-310.325zM744.705-65.91v899.852h-589.558v-899.883h124.117c0 0 0 0.031 0 0.031v310.263c0 34.287 27.771 62.059 62.059 62.059h217.206c34.256 0 62.059-27.771 62.059-62.059v-310.263c0 0 0-0.031 0-0.031l124.117 0.031zM1023.969 616.736h-217.206v-682.677h217.206v682.677zM248.235 477.104v31.029c0 8.564 6.951 15.515 15.515 15.515h372.352c8.564 0 15.515-6.951 15.515-15.515v-31.029c0-8.564-6.951-15.515-15.515-15.515h-372.352c-8.564 0-15.515 6.951-15.515 15.515zM636.102 647.765h-372.352c-8.564 0-15.515 6.92-15.515 15.484v31.029c0 8.595 6.951 15.515 15.515 15.515h372.352c8.564 0 15.515-6.92 15.515-15.515v-31.029c0-8.564-6.951-15.484-15.515-15.484z"  horiz-adv-x="1180" />

    
    <glyph glyph-name="water_icon" unicode="&#58994;" d="M535.32 872.15c-10.26 15.85-36.38 15.85-46.64 0-12.68-19.49-310.28-479.44-310.28-654.55 0-183.96 149.6-333.6 333.6-333.6s333.6 149.64 333.6 333.6c0 175.11-297.6 635.060-310.28 654.55zM512-60.4c-153.28 0-278 124.72-278 278 0 120.86 183 436.79 278 587.74 95-150.95 278-466.87 278-587.74 0-153.28-124.72-278-278-278zM706.6 245.4c-0.006 0-0.013 0-0.020 0-15.342 0-27.78-12.438-27.78-27.78 0-0.007 0-0.014 0-0.021-0-91.999-74.82-166.799-166.8-166.799-15.354-0-27.8-12.446-27.8-27.8 0-15.354 12.446-27.8 27.8-27.8 122.63-0 222.4 99.77 222.4 222.4 0 0.006 0 0.013 0 0.020 0 15.342-12.438 27.78-27.78 27.78-0.007 0-0.014-0-0.021-0z"  horiz-adv-x="1024" />

    
    <glyph glyph-name="icon--" unicode="&#59237;" d="M524.8 547.84c-112.64 0-204.8-92.16-204.8-204.8s92.16-204.8 204.8-204.8 204.8 92.16 204.8 204.8-92.16 204.8-204.8 204.8z m0-358.4c-84.48 0-153.6 69.12-153.6 153.6s69.12 153.6 153.6 153.6 153.6-69.12 153.6-153.6-69.12-153.6-153.6-153.6z m307.2 460.8h-76.8l-25.6 51.2c-15.36 30.72-23.04 51.2-51.2 51.2h-307.2c-28.16 0-38.4-25.6-51.2-51.2l-25.6-51.2h-76.8c-56.32 0-102.4-46.08-102.4-102.4v-409.6c0-56.32 46.08-102.4 102.4-102.4h614.4c56.32 0 102.4 46.08 102.4 102.4v409.6c0 56.32-46.08 102.4-102.4 102.4z m51.2-512c0-28.16-23.04-51.2-51.2-51.2h-614.4c-28.16 0-51.2 23.04-51.2 51.2v409.6c0 28.16 23.04 51.2 51.2 51.2h102.4l25.6 51.2c17.92 30.72 23.04 51.2 51.2 51.2h256c28.16 0 33.28-20.48 51.2-51.2l25.6-51.2h102.4c28.16 0 51.2-23.04 51.2-51.2v-409.6z"  horiz-adv-x="1024" />

    
    <glyph glyph-name="gouwuche" unicode="&#58973;" d="M895.552 604.458667a104.256 104.256 0 0 0 19.456-85.973334L886.037333 244.906667c-11.072-48.938667-51.328-81.344-97.984-81.344H344.170667c-46.784 0-87.850667 33.877333-97.578667 80.405333L192.704 696.192c-3.2 14.634667-17.066667 25.898667-32.810667 25.898667H96.789333C78.805333 722.090667 64 737.024 64 755.413333 64 773.866667 78.805333 789.333333 96.789333 789.333333h63.104c46.762667 0 87.850667-33.898667 97.578667-80.405333l53.888-452.224c3.2-14.634667 17.066667-25.898667 32.810667-25.898667h443.989333a33.28 33.28 0 0 1 32.789333 26.837334l28.970667 273.578666c2.794667 12.202667 0.512 23.04-5.994667 31.466667a33.365333 33.365333 0 0 1-26.389333 13.162667H374.485333c-18.005333 0-32.810667 15.04-32.810666 33.344 0 18.325333 14.805333 33.365333 32.810666 33.365333h442.944c30.506667 0 59.178667-14.08 78.122667-38.101333zM746.666667 37.845333a56.896 56.896 0 1 0 113.770666 0 56.896 56.896 0 0 0-113.770666 0z m-455.104 0a56.896 56.896 0 1 0 113.770666 0 56.896 56.896 0 0 0-113.770666 0z"  horiz-adv-x="1024" />

    
    <glyph glyph-name="shouji" unicode="&#58935;" d="M768 832a128 128 0 0 0 128-128v-640a128 128 0 0 0-128-128H256a128 128 0 0 0-128 128V704a128 128 0 0 0 128 128h512z m0-64H256a64 64 0 0 1-63.84-59.2L192 704v-640a64 64 0 0 1 59.2-63.84L256 0h512a64 64 0 0 1 63.84 59.2L832 64V704a64 64 0 0 1-59.2 63.84L768 768z m-128-640v-64h-256v64h256z"  horiz-adv-x="1024" />

    
    <glyph glyph-name="ic_search24px" unicode="&#58902;" d="M469.333333 810.666667a384 384 0 0 0 300.032-623.658667l139.306667-139.349333a42.666667 42.666667 0 1 0-60.330667-60.330667l-139.349333 139.306667A384 384 0 1 0 469.333333 810.666667z m0-85.333334a298.666667 298.666667 0 1 1 0-597.333333 298.666667 298.666667 0 0 1 0 597.333333z"  horiz-adv-x="1024" />

    
    <glyph glyph-name="001feiji-3" unicode="&#59427;" d="M578 677.5c-13.7 22.8-34.9 35.8-58.2 35.8s-44.5-13.1-58.2-35.8c-6.3-10.4-2.9-23.9 7.5-30.2 10.4-6.3 23.9-2.9 30.2 7.5 5.5 9.2 13 14.5 20.5 14.5s15-5.3 20.5-14.5c4.2-6.9 11.4-10.7 18.9-10.7 3.8 0 7.7 1 11.3 3.2 10.4 6.3 13.8 19.8 7.5 30.2zM913.7 382.9l-279.3 152c1.3 41.1 2.2 72.9 2.2 88.8 0 41.2-11.9 81.3-33.5 112.9-22.6 33.1-53 52-83.4 52s-60.8-19-83.4-52c-21.6-31.6-33.5-71.7-33.5-112.9 0-16.1 0.8-48.3 2.2-89.9L127.7 382.9c-7.1-3.8-11.5-11.2-11.5-19.3v-90c0-6.5 2.9-12.7 7.9-16.9 4-3.3 9-5.1 14.1-5.1 1.2 0 2.5 0.1 3.8 0.3l271.7 48.6c1.6-39.4 3.2-78.2 4.6-113.8L306 111.9c-6.1-4.1-9.8-10.9-9.8-18.3v-78.8c0-6.9 3.2-13.3 8.7-17.5 3.8-2.9 8.5-4.5 13.3-4.5 1.9 0 3.9 0.2 5.8 0.8l101.3 27.7c0.5-11.7 10.2-21 22-21h51.4V-19c0-12.2 9.8-22 22-22s22 9.9 22 22v19.3h49.5c11.8 0 21.5 9.3 21.9 21v0.6l103.4-28.3c1.9-0.5 3.9-0.8 5.8-0.8 4.7 0 9.4 1.5 13.3 4.5 5.5 4.2 8.7 10.6 8.7 17.5v78.8c0 7.3-3.7 14.2-9.8 18.3L621.1 188c1.5 35.3 3 73.8 4.6 112.9l273.7-49c1.3-0.2 2.6-0.3 3.9-0.3 5.1 0 10.1 1.8 14 5.1 5 4.2 7.9 10.4 7.9 16.9v90c0 8-4.4 15.4-11.5 19.3z m-753.5-83.1v50.7l246.5 134.2c1.5-42.7 3.3-91 5.3-139.9l-251.8-45z m180-256.2v38.2l80.3 53.4c1.1-26.7 2.1-50.2 2.9-68.9l-83.2-22.7z m202.5 0.7v83c0 12.2-9.8 22-22 22s-22-9.8-22-22v-83h-30.3c-4.2 98.1-21.6 508.1-21.4 579.4 0 32 9.4 64.1 25.8 88.1 14 20.5 31.7 32.8 47.1 32.8s33-12.2 47.1-32.8c16.4-24 25.8-56.1 25.8-88.1 0-71.3-17.4-481.3-21.6-579.4h-28.5z m158.6 37.5v-38.2L616.1 67c0.8 18.9 1.8 42.6 2.9 69.6l82.3-54.8z m179.9 218.1l-253.7 45.4c1.9 49.1 3.8 97.6 5.3 140.5l248.4-135.2v-50.7z"  horiz-adv-x="1024" />

    
    <glyph glyph-name="game" unicode="&#59008;" d="M822.71 94.17c-55.89-0.01-118.07 37.08-169.98 105.38-31.51 41.44-77.3 65.22-125.65 65.22h-30.16c-48.35 0-94.15-23.77-125.65-65.22-74.38-97.87-169.89-131.63-237.67-84.05-83.45 58.61-93.16 221.8-22.09 371.51 45.43 95.71 113.92 163.75 183.22 182.01 38.05 10.02 73.86 4.29 103.57-16.57 31.8-22.57 63.31-33.83 94.16-33.83h39.08c30.86 0 62.36 11.26 93.63 33.47 30.23 21.23 66.05 26.95 104.1 16.93 69.3-18.27 137.78-86.3 183.21-182.01v0.01c71.08-149.72 61.38-312.91-22.09-371.51-20.48-14.39-43.5-21.34-67.68-21.34z m-325.79 223.3h30.16c64.96 0 126.05-31.36 167.6-86.03 56.01-73.7 122.48-102.94 165.42-72.8 60.95 42.8 63.14 182.84 4.77 305.79v0.01c-38.27 80.63-95.38 139.5-149.04 153.65-22.85 6.04-43 3.1-59.85-8.74-40.67-28.87-82.43-43.41-124.44-43.41h-39.08c-42 0-83.78 14.54-124.15 43.2-17.14 12.04-37.28 14.96-60.15 8.94-53.66-14.14-110.77-73.01-149.05-153.65-58.36-122.96-56.17-262.99 4.77-305.79 42.96-30.16 109.42-0.89 165.43 72.8 41.56 54.67 102.65 86.03 167.61 86.03zM783.31 328.58c-36.32 0-65.87 29.55-65.87 65.87s29.55 65.87 65.87 65.87c36.32 0 65.87-29.55 65.87-65.87s-29.55-65.87-65.87-65.87z m0 79.04c-7.26 0-13.17-5.91-13.17-13.17s5.91-13.17 13.17-13.17c7.27 0 13.18 5.91 13.18 13.17s-5.91 13.17-13.18 13.17zM653.71 372.93c-36.32 0-65.87 29.55-65.87 65.87s29.55 65.87 65.87 65.87c36.32 0 65.87-29.55 65.87-65.87s-29.56-65.87-65.87-65.87z m0 79.04c-7.26 0-13.17-5.91-13.17-13.17s5.91-13.17 13.17-13.17 13.17 5.91 13.17 13.17-5.91 13.17-13.17 13.17zM319.41 333.41c-14.55 0-26.35 11.8-26.35 26.35V517.84c0 14.55 11.8 26.35 26.35 26.35s26.35-11.8 26.35-26.35v-158.08c0-14.56-11.8-26.35-26.35-26.35zM398.45 412.45H240.37c-14.55 0-26.35 11.8-26.35 26.35s11.8 26.35 26.35 26.35h158.08c14.55 0 26.35-11.8 26.35-26.35s-11.8-26.35-26.35-26.35z"  horiz-adv-x="1024" />

    
    <glyph glyph-name="icon_huochepiaoda" unicode="&#58963;" d="M786.368 832A109.632 109.632 0 0 0 896 722.368V193.28a109.664 109.664 0 0 0-94.944-108.672l79.104-150.464a20.544 20.544 0 0 0-15.168-29.888l-3.008-0.224h-45.568a20.544 20.544 0 0 0-16.48 8.256l-1.728 2.72-25.696 48.896H283.456l-25.664-48.896a20.544 20.544 0 0 0-18.208-10.976H194.016a20.544 20.544 0 0 0-18.176 30.112l79.104 150.464A109.664 109.664 0 0 0 160 193.28V722.368A109.632 109.632 0 0 0 269.632 832h516.736z m-76.8-748.384H346.4l-31.488-59.872h426.144l-31.488 59.872zM313.728 304.32c-33.44 0-60.576-26.496-60.576-59.136s27.136-59.136 60.576-59.136 60.544 26.464 60.544 59.136c0 32.64-27.104 59.136-60.544 59.136z m428.544 0c-33.44 0-60.544-26.496-60.544-59.136s27.104-59.136 60.544-59.136 60.576 26.464 60.576 59.136c0 32.64-27.136 59.136-60.576 59.136z m5.76 418.496H307.968c-30.272 0-54.816-24.544-54.816-54.816v-236.096c0-30.272 24.544-54.816 54.816-54.816h440.064c30.272 0 54.816 24.544 54.816 54.816V668c0 30.272-24.544 54.816-54.816 54.816z"  horiz-adv-x="1024" />

    


  </font>
</defs>
</svg>
